<svg height='300px' width='300px'  fill="#000000" xmlns="http://www.w3.org/2000/svg" xmlns:xlink="http://www.w3.org/1999/xlink" version="1.0" x="0px" y="0px" viewBox="0 0 100 100" enable-background="new 0 0 100 100" xml:space="preserve"><g><path fill="none" d="M78.9,27.4h3.9v17.1h-3.9V27.4z M87.1,47.8v4.5H12.4v-4.5H87.1z M71.1,27.4H75v17.1h-3.9V27.4z M63.3,27.4h3.9   v17.1h-3.9V27.4z M51.7,27.4h7.8v17.1h-7.8V27.4z M43.9,27.4h3.9v17.1h-3.9V27.4z M36.2,27.4h3.9v17.1h-3.9V27.4z M24.5,27.4h7.8   v17.1h-7.8V27.4z M20.7,44.5h-3.9V27.4h3.9V44.5z M5,15h13.8v3.8h-10v10H5V15z M18.8,85H5V71.2h3.9v10h10V85z M20.7,73.1h-3.9V55.9   h3.9V73.1z M32.3,73.1h-7.8V55.9h7.8V73.1z M40.1,73.1h-3.9V55.9h3.9V73.1z M47.8,73.1h-3.9V55.9h3.9V73.1z M59.5,73.1h-7.8V55.9   h7.8V73.1z M67.2,73.1h-3.9V55.9h3.9V73.1z M75,73.1h-3.9V55.9H75V73.1z M78.9,55.9h3.9v17.1h-3.9V55.9z M95,85H81.2v-3.8h10v-10   H95V85z M95,28.8h-3.9v-10h-10V15H95V28.8z"></path><rect x="36.2" y="27.4" width="3.9" height="17.1"></rect><rect x="24.5" y="27.4" width="7.8" height="17.1"></rect><rect x="24.5" y="55.9" width="7.8" height="17.1"></rect><rect x="16.8" y="55.9" width="3.9" height="17.1"></rect><rect x="16.8" y="27.4" width="3.9" height="17.1"></rect><rect x="71.1" y="27.4" width="3.9" height="17.1"></rect><rect x="51.7" y="27.4" width="7.8" height="17.1"></rect><rect x="43.9" y="27.4" width="3.9" height="17.1"></rect><rect x="63.3" y="27.4" width="3.9" height="17.1"></rect><rect x="71.1" y="55.9" width="3.9" height="17.1"></rect><rect x="78.9" y="55.9" width="3.9" height="17.1"></rect><rect x="36.2" y="55.9" width="3.9" height="17.1"></rect><rect x="63.3" y="55.9" width="3.9" height="17.1"></rect><rect x="78.9" y="27.4" width="3.9" height="17.1"></rect><rect x="51.7" y="55.9" width="7.8" height="17.1"></rect><rect x="43.9" y="55.9" width="3.9" height="17.1"></rect><rect x="12.4" y="47.8" width="74.7" height="4.5"></rect><polygon points="8.9,18.8 18.8,18.8 18.8,15 5,15 5,28.8 8.9,28.8  "></polygon><polygon points="81.2,18.8 91.1,18.8 91.1,28.8 95,28.8 95,15 81.2,15  "></polygon><polygon points="8.9,71.2 5,71.2 5,85 18.8,85 18.8,81.2 8.9,81.2  "></polygon><polygon points="91.1,81.2 81.2,81.2 81.2,85 95,85 95,71.2 91.1,71.2  "></polygon></g></svg>